<?xml version="1.0" encoding="utf-8"?>
<!-- Generator: Adobe Illustrator 22.1.0, SVG Export Plug-In . SVG Version: 6.00 Build 0)  -->
<svg version="1.1" xmlns="http://www.w3.org/2000/svg" xmlns:xlink="http://www.w3.org/1999/xlink" x="0px" y="0px"
	 viewBox="0 0 1366 768" style="enable-background:new 0 0 1366 768;" xml:space="preserve">
<style type="text/css">
	.st0{fill:#757575;}
	.st1{fill:#FFFFFF;}
	.st2{fill:#EDEDED;}
	.st3{fill:#070707;}
	.st4{fill:#9E5C04;}
	.st5{fill:#6D4203;}
	.st6{fill:#492403;}
</style>
<g id="Layer_1">
	<rect class="st0" width="1366" height="768"/>
	<circle class="st1" cx="371" cy="372" r="12"/>
</g>
<g id="Layer_6">
</g>
<g id="Layer_2">
	<g>
		<circle class="st1" cx="416.6" cy="453.5" r="168.5"/>
	</g>
	<g>
		<circle class="st1" cx="810.6" cy="163.4" r="106.4"/>
	</g>
	<g>
		<circle class="st1" cx="1064.6" cy="362.4" r="106.4"/>
	</g>
	<g>
		<circle class="st1" cx="841.6" cy="584.4" r="106.4"/>
	</g>
</g>
<g id="Layer_3">
	
		<ellipse transform="matrix(0.3602 -0.9329 0.9329 0.3602 -147.5882 681.9446)" class="st2" cx="423.4" cy="448.6" rx="151.5" ry="156"/>
	
		<ellipse transform="matrix(0.3602 -0.9329 0.9329 0.3602 371.845 862.6685)" class="st2" cx="814.8" cy="160.3" rx="95.7" ry="98.5"/>
	
		<ellipse transform="matrix(0.3602 -0.9329 0.9329 0.3602 348.7175 1226.9481)" class="st2" cx="1068.8" cy="359.3" rx="95.7" ry="98.5"/>
	
		<ellipse transform="matrix(0.3602 -0.9329 0.9329 0.3602 -1.0656 1160.9567)" class="st2" cx="845.8" cy="581.3" rx="95.7" ry="98.5"/>
</g>
<g id="Layer_4">
	<path class="st1" d="M263,560.1l-84.6,32.2c-18.8,7.1-40-2.4-47.1-21.1l0,0c-7.1-18.8,2.4-40,21.1-47.1l84.6-32.2
		c18.8-7.1,40,2.4,47.1,21.1l0,0C291.2,531.7,281.7,552.9,263,560.1z"/>
	<circle class="st3" cx="429.9" cy="441.4" r="142.5"/>
	<path class="st2" d="M175.5,593.4l85.3-32.5c4.4-1.7,6.6-6.6,4.9-11l0,0c-1.7-4.4-6.6-6.6-11-4.9l-85.3,32.5
		c-4.4,1.7-6.6,6.6-4.9,11h0C166.2,592.9,171.2,595.1,175.5,593.4z"/>
	<path class="st1" d="M713.5,230.7L660.1,251c-11.8,4.5-25.2-1.5-29.7-13.3v0c-4.5-11.8,1.5-25.2,13.3-29.7l53.4-20.3
		c11.8-4.5,25.2,1.5,29.7,13.3l0,0C731.4,212.8,725.4,226.1,713.5,230.7z"/>
	<circle class="st4" cx="818.9" cy="155.7" r="90"/>
	<path class="st2" d="M658.3,251.7l53.8-20.5c2.8-1.1,4.2-4.2,3.1-6.9v0c-1.1-2.8-4.2-4.2-6.9-3.1l-53.8,20.5
		c-2.8,1.1-4.2,4.2-3.1,6.9l0,0C652.5,251.4,655.6,252.8,658.3,251.7z"/>
	<path class="st1" d="M967.5,429.7L914.1,450c-11.8,4.5-25.2-1.5-29.7-13.3v0c-4.5-11.8,1.5-25.2,13.3-29.7l53.4-20.3
		c11.8-4.5,25.2,1.5,29.7,13.3l0,0C985.4,411.8,979.4,425.1,967.5,429.7z"/>
	<circle class="st5" cx="1072.9" cy="354.7" r="90"/>
	<path class="st2" d="M912.3,450.7l53.8-20.5c2.8-1.1,4.2-4.2,3.1-6.9l0,0c-1.1-2.8-4.2-4.2-6.9-3.1l-53.8,20.5
		c-2.8,1.1-4.2,4.2-3.1,6.9h0C906.5,450.4,909.6,451.8,912.3,450.7z"/>
	<path class="st1" d="M744.5,651.7L691.1,672c-11.8,4.5-25.2-1.5-29.7-13.3v0c-4.5-11.8,1.5-25.2,13.3-29.7l53.4-20.3
		c11.8-4.5,25.2,1.5,29.7,13.3h0C762.4,633.8,756.4,647.1,744.5,651.7z"/>
	<circle class="st6" cx="849.9" cy="576.7" r="90"/>
	<path class="st2" d="M689.3,672.7l53.8-20.5c2.8-1.1,4.2-4.2,3.1-6.9l0,0c-1.1-2.8-4.2-4.2-6.9-3.1l-53.8,20.5
		c-2.8,1.1-4.2,4.2-3.1,6.9h0C683.5,672.4,686.6,673.8,689.3,672.7z"/>
</g>
<g id="Layer_7">
	<circle class="st1" cx="472.8" cy="362.1" r="11"/>
	<circle class="st1" cx="498" cy="406.6" r="5.5"/>
	<circle class="st1" cx="846.1" cy="105.6" r="6.9"/>
	<circle class="st1" cx="861.9" cy="133.8" r="3.5"/>
	<circle class="st1" cx="1100.1" cy="304.6" r="6.9"/>
	<circle class="st1" cx="1115.9" cy="332.8" r="3.5"/>
	<circle class="st1" cx="877.1" cy="526.6" r="6.9"/>
	<circle class="st1" cx="892.9" cy="554.8" r="3.5"/>
</g>
</svg>
