<?xml version="1.0" encoding="utf-8"?>
<!-- Generator: Adobe Illustrator 22.1.0, SVG Export Plug-In . SVG Version: 6.00 Build 0)  -->
<svg version="1.1" xmlns="http://www.w3.org/2000/svg" xmlns:xlink="http://www.w3.org/1999/xlink" x="0px" y="0px"
	 viewBox="0 0 1366 768" style="enable-background:new 0 0 1366 768;" xml:space="preserve">
<style type="text/css">
	.st0{fill:#757575;}
	.st1{fill:#FFFFFF;}
	.st2{fill:#EDEDED;}
	.st3{fill:#070707;}
</style>
<g id="Layer_1">
	<rect class="st0" width="1366" height="768"/>
	<circle class="st1" cx="371" cy="372" r="12"/>
</g>
<g id="Layer_6">
</g>
<g id="Layer_2">
	<g>
		<circle class="st1" cx="416.6" cy="453.5" r="168.5"/>
	</g>
</g>
<g id="Layer_3">
	
		<ellipse transform="matrix(0.3602 -0.9329 0.9329 0.3602 -147.5882 681.9446)" class="st2" cx="423.4" cy="448.6" rx="151.5" ry="156"/>
</g>
<g id="Layer_4">
	<path class="st1" d="M263,560.1l-84.6,32.2c-18.8,7.1-40-2.4-47.1-21.1l0,0c-7.1-18.8,2.4-40,21.1-47.1l84.6-32.2
		c18.8-7.1,40,2.4,47.1,21.1l0,0C291.2,531.7,281.7,552.9,263,560.1z"/>
	<circle class="st3" cx="429.9" cy="441.4" r="142.5"/>
	<path class="st2" d="M175.5,593.4l85.3-32.5c4.4-1.7,6.6-6.6,4.9-11l0,0c-1.7-4.4-6.6-6.6-11-4.9l-85.3,32.5
		c-4.4,1.7-6.6,6.6-4.9,11h0C166.2,592.9,171.2,595.1,175.5,593.4z"/>
</g>
<g id="Layer_7">
	<circle class="st1" cx="472.8" cy="362.1" r="11"/>
	<circle class="st1" cx="498" cy="406.6" r="5.5"/>
</g>
</svg>
